<svg width="194" height="194" viewBox="0 0 194 194" fill="none" xmlns="http://www.w3.org/2000/svg">
<mask id="mask0_2_11" style="mask-type:alpha" maskUnits="userSpaceOnUse" x="0" y="0" width="194" height="194">
<rect width="194" height="194" fill="#C4C4C4"/>
</mask>
<g mask="url(#mask0_2_11)">
<path d="M46.0539 14.4343C58.5935 6.70212 72.731 1.93078 87.3915 0.482982C102.052 -0.964812 116.85 0.949065 130.659 6.07911C144.469 11.2092 156.928 19.4203 167.087 30.0883C177.247 40.7563 184.841 53.6004 189.291 67.6439C193.741 81.6875 194.931 96.5609 192.77 111.133C190.609 125.706 185.154 139.594 176.819 151.741C168.484 163.889 157.49 173.976 144.671 181.236C131.853 188.496 117.548 192.738 102.843 193.64L99.4026 137.505C105.573 137.127 111.576 135.346 116.955 132.3C122.334 129.253 126.947 125.02 130.445 119.923C133.942 114.826 136.231 108.998 137.138 102.883C138.045 96.7679 137.546 90.5266 135.678 84.6336C133.811 78.7405 130.624 73.3508 126.361 68.8742C122.098 64.3977 116.87 60.952 111.075 58.7993C105.28 56.6466 99.0705 55.8435 92.9186 56.4511C86.7666 57.0586 80.8342 59.0608 75.5723 62.3054L46.0539 14.4343Z" fill="#A3AAE0"/>
<path d="M6.74229 61.4272C15.265 39.7719 31.2964 21.9071 51.906 11.0982C72.5156 0.289288 96.3267 -2.74167 118.987 2.55935C141.647 7.86037 161.643 21.1393 175.319 39.9688C188.995 58.7983 195.438 81.9207 193.47 105.109L137.431 100.354C138.257 90.6233 135.554 80.9205 129.815 73.0192C124.076 65.1178 115.685 59.5456 106.176 57.3212C96.6674 55.0968 86.6756 56.3686 78.0273 60.9043C69.379 65.44 62.6518 72.9366 59.0754 82.0237L6.74229 61.4272Z" fill="#7782D1"/>
<path d="M3.85035 123.925C-2.8883 100.706 -0.704336 75.8073 9.97347 54.1166C20.6513 32.4258 39.0516 15.5098 61.5619 6.68989C84.0722 -2.13007 109.067 -2.21693 131.638 6.44634C154.209 15.1096 172.726 31.8972 183.554 53.5133L133.27 78.7025C128.727 69.6318 120.956 62.5873 111.485 58.952C102.013 55.3166 91.5251 55.3531 82.0792 59.0541C72.6333 62.7552 64.912 69.8536 60.4313 78.9556C55.9506 88.0577 55.0342 98.5059 57.8619 108.249L3.85035 123.925Z" fill="#5865C4"/>
<path d="M31.0375 167.983C13.8721 152.072 3.04551 130.485 0.558173 107.212C-1.92916 83.9394 4.09084 60.5526 17.5059 41.3731C30.921 22.1936 50.8244 8.51759 73.5388 2.87191C96.2532 -2.77376 120.243 -0.00752384 141.077 10.6595L115.445 60.7195C106.703 56.2433 96.6362 55.0825 87.1046 57.4516C77.5731 59.8207 69.221 65.5595 63.5917 73.6077C57.9624 81.656 55.4363 91.4697 56.48 101.236C57.5238 111.002 62.0669 120.06 69.27 126.736L31.0375 167.983Z" fill="#3244BF"/>
<path d="M111.357 192.737C98.7734 194.634 85.9396 194.034 73.5882 190.97C61.2368 187.907 49.6097 182.441 39.3707 174.885C29.1317 167.328 20.4813 157.829 13.9135 146.929C7.34568 136.029 2.98904 123.943 1.09232 111.359L56.7044 102.977C57.5004 108.257 59.3285 113.329 62.0845 117.903C64.8406 122.477 68.4705 126.463 72.7671 129.634C77.0636 132.805 81.9427 135.098 87.1256 136.384C92.3086 137.669 97.694 137.921 102.974 137.125L111.357 192.737Z" fill="#2A3795"/>
</g>
</svg>
